HIERARCHY
ROOT Hips
{
	OFFSET 0.053599 88.859886 3.107447
	CHANNELS 6 Xposition Yposition Zposition Zrotation Yrotation Xrotation 
	JOINT Spine
	{
		OFFSET -0.000000 8.814246 -2.080107
		CHANNELS 3 Zrotation Yrotation Xrotation
		JOINT Spine1
		{
			OFFSET 0.000000 8.844141 0.000000
			CHANNELS 3 Zrotation Yrotation Xrotation
			JOINT Spine2
			{
				OFFSET -0.000000 11.682268 0.000000
				CHANNELS 3 Zrotation Yrotation Xrotation
				JOINT Spine3
				{
					OFFSET 0.000000 11.746700 0.000000
					CHANNELS 3 Zrotation Yrotation Xrotation
					JOINT Neck
					{
						OFFSET -0.000000 17.658264 -0.000000
						CHANNELS 3 Zrotation Yrotation Xrotation
						JOINT Neck1
						{
							OFFSET -0.000000 5.101515 -0.000000
							CHANNELS 3 Zrotation Yrotation Xrotation
							JOINT Head
							{
								OFFSET 0.000000 5.101515 0.000000
								CHANNELS 3 Zrotation Yrotation Xrotation
								JOINT HeadEnd
								{
									OFFSET 0.000000 11.655085 0.000000
									CHANNELS 3 Zrotation Yrotation Xrotation
									End Site
									{
										OFFSET 0.000000 0.000000 0.000000
									}
								}
							}
						}
					}
					JOINT RightShoulder
					{
						OFFSET -2.625389 11.175210 0.000000
						CHANNELS 3 Zrotation Yrotation Xrotation
						JOINT RightArm
						{
							OFFSET -0.000000 10.434715 -0.000000
							CHANNELS 3 Zrotation Yrotation Xrotation
							JOINT RightForeArm
							{
								OFFSET -0.000000 29.628420 0.000000
								CHANNELS 3 Zrotation Yrotation Xrotation
								JOINT RightHand
								{
									OFFSET -0.000000 22.857611 0.000000
									CHANNELS 3 Zrotation Yrotation Xrotation
									JOINT RightHandThumb1
									{
										OFFSET -2.867323 3.959563 2.944291
										CHANNELS 3 Zrotation Yrotation Xrotation
										JOINT RightHandThumb2
										{
											OFFSET 0.000000 3.350399 0.000000
											CHANNELS 3 Zrotation Yrotation Xrotation
											JOINT RightHandThumb3
											{
												OFFSET 0.000000 3.756509 -0.000000
												CHANNELS 3 Zrotation Yrotation Xrotation
												JOINT RightHandThumb4
												{
													OFFSET 0.000000 3.147345 0.000000
													CHANNELS 3 Zrotation Yrotation Xrotation
													End Site
													{
														OFFSET 0.000000 0.000000 0.000000
													}
												}
											}
										}
									}
									JOINT RightHandIndex1
									{
										OFFSET -0.086752 10.030893 2.345280
										CHANNELS 3 Zrotation Yrotation Xrotation
										JOINT RightHandIndex2
										{
											OFFSET -0.000000 4.061090 0.000000
											CHANNELS 3 Zrotation Yrotation Xrotation
											JOINT RightHandIndex3
											{
												OFFSET -0.000000 3.248873 0.000000
												CHANNELS 3 Zrotation Yrotation Xrotation
												JOINT RightHandIndex4
												{
													OFFSET 0.000000 2.639709 -0.000000
													CHANNELS 3 Zrotation Yrotation Xrotation
													End Site
													{
														OFFSET 0.000000 0.000000 0.000000
													}
												}
											}
										}
									}
									JOINT RightHandMiddle1
									{
										OFFSET 0.104102 9.502952 0.006768
										CHANNELS 3 Zrotation Yrotation Xrotation
										JOINT RightHandMiddle2
										{
											OFFSET 0.000000 4.568727 0.000000
											CHANNELS 3 Zrotation Yrotation Xrotation
											JOINT RightHandMiddle3
											{
												OFFSET 0.000000 3.654981 -0.000000
												CHANNELS 3 Zrotation Yrotation Xrotation
												JOINT RightHandMiddle4
												{
													OFFSET -0.000000 2.741236 -0.000000
													CHANNELS 3 Zrotation Yrotation Xrotation
													End Site
													{
														OFFSET 0.000000 0.000000 0.000000
													}
												}
											}
										}
									}
									JOINT RightHandRing1
									{
										OFFSET 0.086752 8.921708 -2.267442
										CHANNELS 3 Zrotation Yrotation Xrotation
										JOINT RightHandRing2
										{
											OFFSET -0.000000 4.061090 0.000000
											CHANNELS 3 Zrotation Yrotation Xrotation
											JOINT RightHandRing3
											{
												OFFSET 0.000000 3.654981 -0.000000
												CHANNELS 3 Zrotation Yrotation Xrotation
												JOINT RightHandRing4
												{
													OFFSET 0.000000 2.741236 -0.000000
													CHANNELS 3 Zrotation Yrotation Xrotation
													End Site
													{
														OFFSET 0.000000 0.000000 0.000000
													}
												}
											}
										}
									}
									JOINT RightHandPinky1
									{
										OFFSET -0.173504 7.976997 -4.467199
										CHANNELS 3 Zrotation Yrotation Xrotation
										JOINT RightHandPinky2
										{
											OFFSET 0.000000 3.350399 -0.000000
											CHANNELS 3 Zrotation Yrotation Xrotation
											JOINT RightHandPinky3
											{
												OFFSET -0.000000 2.842763 0.000000
												CHANNELS 3 Zrotation Yrotation Xrotation
												JOINT RightHandPinky4
												{
													OFFSET -0.000000 2.639709 0.000000
													CHANNELS 3 Zrotation Yrotation Xrotation
													End Site
													{
														OFFSET 0.000000 0.000000 0.000000
													}
												}
											}
										}
									}
									JOINT RightForeArmEnd
									{
										OFFSET 0.000000 0.000000 0.000000
										CHANNELS 3 Zrotation Yrotation Xrotation
										End Site
										{
											OFFSET 0.000000 0.000000 0.000000
										}
									}
								}
								JOINT RightArmEnd
								{
									OFFSET 0.000000 0.000000 0.000000
									CHANNELS 3 Zrotation Yrotation Xrotation
									End Site
									{
										OFFSET 0.000000 0.000000 0.000000
									}
								}
							}
						}
					}
					JOINT LeftShoulder
					{
						OFFSET 2.625389 11.175210 0.000000
						CHANNELS 3 Zrotation Yrotation Xrotation
						JOINT LeftArm
						{
							OFFSET 0.000000 10.813635 -0.000000
							CHANNELS 3 Zrotation Yrotation Xrotation
							JOINT LeftForeArm
							{
								OFFSET 0.000000 28.724781 0.000000
								CHANNELS 3 Zrotation Yrotation Xrotation
								JOINT LeftHand
								{
									OFFSET 0.644384 25.716167 -0.328871
									CHANNELS 3 Zrotation Yrotation Xrotation
									JOINT LeftHandThumb1
									{
										OFFSET 2.867323 3.959563 2.944291
										CHANNELS 3 Zrotation Yrotation Xrotation
										JOINT LeftHandThumb2
										{
											OFFSET 0.000000 3.350399 0.000000
											CHANNELS 3 Zrotation Yrotation Xrotation
											JOINT LeftHandThumb3
											{
												OFFSET -0.000000 3.756509 0.000000
												CHANNELS 3 Zrotation Yrotation Xrotation
												JOINT LeftHandThumb4
												{
													OFFSET -0.000000 3.100000 0.000000
													CHANNELS 3 Zrotation Yrotation Xrotation
													End Site
													{
														OFFSET 0.000000 0.000000 0.000000
													}
												}
											}
										}
									}
									JOINT LeftHandIndex1
									{
										OFFSET 0.086752 10.030893 2.345280
										CHANNELS 3 Zrotation Yrotation Xrotation
										JOINT LeftHandIndex2
										{
											OFFSET -0.000000 4.061090 -0.000000
											CHANNELS 3 Zrotation Yrotation Xrotation
											JOINT LeftHandIndex3
											{
												OFFSET 0.000000 3.248873 -0.000000
												CHANNELS 3 Zrotation Yrotation Xrotation
												JOINT LeftHandIndex4
												{
													OFFSET 0.000000 2.639709 -0.000000
													CHANNELS 3 Zrotation Yrotation Xrotation
													End Site
													{
														OFFSET 0.000000 0.000000 0.000000
													}
												}
											}
										}
									}
									JOINT LeftHandMiddle1
									{
										OFFSET -0.104102 9.502952 0.006768
										CHANNELS 3 Zrotation Yrotation Xrotation
										JOINT LeftHandMiddle2
										{
											OFFSET -0.000000 4.568727 -0.000000
											CHANNELS 3 Zrotation Yrotation Xrotation
											JOINT LeftHandMiddle3
											{
												OFFSET 0.000000 3.654981 0.000000
												CHANNELS 3 Zrotation Yrotation Xrotation
												JOINT LeftHandMiddle4
												{
													OFFSET 0.000000 2.741236 -0.000000
													CHANNELS 3 Zrotation Yrotation Xrotation
													End Site
													{
														OFFSET 0.000000 0.000000 0.000000
													}
												}
											}
										}
									}
									JOINT LeftHandRing1
									{
										OFFSET -0.086752 8.921708 -2.267442
										CHANNELS 3 Zrotation Yrotation Xrotation
										JOINT LeftHandRing2
										{
											OFFSET 0.000000 4.061090 0.000000
											CHANNELS 3 Zrotation Yrotation Xrotation
											JOINT LeftHandRing3
											{
												OFFSET 0.000000 3.654981 0.000000
												CHANNELS 3 Zrotation Yrotation Xrotation
												JOINT LeftHandRing4
												{
													OFFSET 0.000000 2.741236 0.000000
													CHANNELS 3 Zrotation Yrotation Xrotation
													End Site
													{
														OFFSET 0.000000 0.000000 0.000000
													}
												}
											}
										}
									}
									JOINT LeftHandPinky1
									{
										OFFSET 0.173504 7.976997 -4.467199
										CHANNELS 3 Zrotation Yrotation Xrotation
										JOINT LeftHandPinky2
										{
											OFFSET -0.000000 3.350399 -0.000000
											CHANNELS 3 Zrotation Yrotation Xrotation
											JOINT LeftHandPinky3
											{
												OFFSET 0.000000 2.842763 0.000000
												CHANNELS 3 Zrotation Yrotation Xrotation
												JOINT LeftHandPinky4
												{
													OFFSET -0.000000 2.639709 -0.000000
													CHANNELS 3 Zrotation Yrotation Xrotation
													End Site
													{
														OFFSET 0.000000 0.000000 0.000000
													}
												}
											}
										}
									}
									JOINT LeftForeArmEnd
									{
										OFFSET 0.000000 0.000000 0.000000
										CHANNELS 3 Zrotation Yrotation Xrotation
										End Site
										{
											OFFSET 0.000000 0.000000 0.000000
										}
									}
								}
								JOINT LeftArmEnd
								{
									OFFSET 0.000000 0.000000 0.000000
									CHANNELS 3 Zrotation Yrotation Xrotation
									End Site
									{
										OFFSET 0.000000 0.000000 0.000000
									}
								}
							}
						}
					}
				}
			}
		}
	}
	JOINT RightUpLeg
	{
		OFFSET -11.289943 0.000000 0.000000
		CHANNELS 3 Zrotation Yrotation Xrotation
		JOINT RightLeg
		{
			OFFSET 0.000000 -38.200325 0.000000
			CHANNELS 3 Zrotation Yrotation Xrotation
			JOINT RightFoot
			{
				OFFSET -0.000000 -39.900856 -0.000000
				CHANNELS 3 Zrotation Yrotation Xrotation
				JOINT RightToeBase
				{
					OFFSET 0.000000 0.000000 15.261641
					CHANNELS 3 Zrotation Yrotation Xrotation
					JOINT RightToeBaseEnd
					{
						OFFSET 0.000000 0.000000 7.370709
						CHANNELS 3 Zrotation Yrotation Xrotation
						End Site
						{
							OFFSET 0.000000 0.000000 0.000000
						}
					}
				}
				JOINT RightLegEnd
				{
					OFFSET 0.000000 0.000000 0.000000
					CHANNELS 3 Zrotation Yrotation Xrotation
					End Site
					{
						OFFSET 0.000000 0.000000 0.000000
					}
				}
			}
			JOINT RightUpLegEnd
			{
				OFFSET 0.000000 0.000000 0.000000
				CHANNELS 3 Zrotation Yrotation Xrotation
				End Site
				{
					OFFSET 0.000000 0.000000 0.000000
				}
			}
		}
	}
	JOINT LeftUpLeg
	{
		OFFSET 11.315661 -0.000000 0.000000
		CHANNELS 3 Zrotation Yrotation Xrotation
		JOINT LeftLeg
		{
			OFFSET -0.000000 -38.200325 -0.000000
			CHANNELS 3 Zrotation Yrotation Xrotation
			JOINT LeftFoot
			{
				OFFSET 0.000000 -39.900856 -0.000000
				CHANNELS 3 Zrotation Yrotation Xrotation
				JOINT LeftToeBase
				{
					OFFSET -0.000000 -0.000000 15.261641
					CHANNELS 3 Zrotation Yrotation Xrotation
					JOINT LeftToeBaseEnd
					{
						OFFSET 0.000000 -0.000000 7.539996
						CHANNELS 3 Zrotation Yrotation Xrotation
						End Site
						{
							OFFSET 0.000000 0.000000 0.000000
						}
					}
				}
				JOINT LeftLegEnd
				{
					OFFSET 0.000000 0.000000 0.000000
					CHANNELS 3 Zrotation Yrotation Xrotation
					End Site
					{
						OFFSET 0.000000 0.000000 0.000000
					}
				}
			}
			JOINT LeftUpLegEnd
			{
				OFFSET 0.000000 0.000000 0.000000
				CHANNELS 3 Zrotation Yrotation Xrotation
				End Site
				{
					OFFSET 0.000000 0.000000 0.000000
				}
			}
		}
	}
}
MOTION
Frames: 5
Frame Time: 0.016667
0.215211 88.958351 2.975348 -0.043035 -0.868956 -10.226636 1.151141 0.087922 6.800951 -0.596044 0.349196 2.903427 -0.016495 -0.233940 4.042330 -1.434851 0.390832 4.478441 1.067995 0.242267 4.229557 0.390623 0.540818 -3.528409 -0.225186 -1.095404 -19.430120 0.000000 0.000000 0.000000 91.528580 -0.340753 9.909982 68.907288 -25.426531 0.838228 0.260706 17.076250 34.682007 -5.947010 10.245575 -6.687227 17.752991 30.814230 64.193649 -6.192506 -7.988282 -14.216484 -4.484989 -5.310164 -9.749484 0.000000 0.000000 0.000000 -4.955027 -8.035533 7.523896 2.355438 0.495834 0.839733 2.052216 0.044363 0.862423 0.000000 0.000000 0.000000 -4.106936 -2.655160 4.388624 1.566566 0.512914 0.323045 2.135003 0.008831 0.288463 0.000000 0.000000 0.000000 -1.715460 4.929410 1.531048 2.646382 -1.004878 -0.491957 2.732939 -0.012019 -0.326393 0.000000 0.000000 0.000000 -0.408824 13.186512 -2.485221 3.589567 -1.986066 -1.242262 3.373402 -0.005717 -1.014375 0.000000 0.000000 0.000000 0.000000 0.000000 0.000000 0.000000 0.000000 0.000000 -88.620964 0.022501 4.608762 -71.984200 11.475729 -7.600489 -0.336332 -14.408134 70.909775 5.460766 -20.935909 -6.285964 -18.653316 -30.514236 63.181049 7.321550 9.817698 -16.954365 5.366008 6.622208 -11.881733 0.000000 0.000000 0.000000 -7.197538 -7.712903 8.555206 -6.384243 0.476029 -0.709745 -6.436183 0.004471 -0.695541 0.000000 0.000000 0.000000 -8.361743 -2.203554 5.077415 -6.881284 0.487621 -0.333329 -6.931508 -0.003240 -0.266900 0.000000 0.000000 0.000000 -14.174192 6.733458 0.891241 -9.940603 -0.991467 0.609448 -10.054547 0.009798 0.461139 0.000000 0.000000 0.000000 -19.051426 15.948621 -4.012382 -12.381147 -1.839914 2.060064 -12.173613 0.174812 1.807698 0.000000 0.000000 0.000000 0.000000 0.000000 0.000000 0.000000 0.000000 0.000000 -0.955688 -9.148004 14.554943 -0.068064 -0.678381 4.970029 -2.503049 -8.099610 17.818176 -0.825261 0.835252 -19.012175 0.000000 0.000000 0.000000 0.000000 0.000000 0.000000 0.000000 0.000000 0.000000 -1.847011 -6.328912 8.726582 0.058812 0.297473 9.595434 4.163296 -0.867939 17.731897 0.270335 -0.412019 -21.015833 0.000000 0.000000 0.000000 0.000000 0.000000 0.000000 0.000000 0.000000 0.000000 
0.207119 88.956299 2.985363 -0.073328 -0.848862 -10.249135 1.166517 0.095344 6.809148 -0.597507 0.349163 2.918849 0.005951 -0.194192 4.047608 -1.441700 0.413944 4.519219 1.190202 0.166045 4.094248 0.379878 0.464920 -3.575031 -0.202887 -1.089245 -19.393152 0.000000 0.000000 0.000000 91.442245 -0.323160 9.946056 68.924591 -25.427839 0.799993 0.261782 17.341148 34.899643 -5.882758 10.839072 -6.774569 18.005644 30.719177 63.927338 -6.504475 -8.474961 -15.006722 -4.720040 -5.624331 -10.300185 0.000000 0.000000 0.000000 -3.144703 -8.341100 6.997943 2.822248 0.485597 0.888154 2.519706 0.033624 0.906592 0.000000 0.000000 0.000000 -2.369055 -2.953055 4.039450 2.047950 0.509286 0.342225 2.616826 0.004883 0.305125 0.000000 0.000000 0.000000 -0.065397 4.637585 1.422222 3.210542 -0.996606 -0.514037 3.291165 -0.005389 -0.342838 0.000000 0.000000 0.000000 1.065547 12.935555 -2.382639 4.146703 -1.966828 -1.298386 3.921994 0.010166 -1.056690 0.000000 0.000000 0.000000 0.000000 0.000000 0.000000 0.000000 0.000000 0.000000 -88.534744 0.041610 4.607015 -71.977242 11.305425 -7.692581 -0.337210 -14.938977 71.336708 4.471901 -21.681517 -6.170208 -19.478901 -30.276459 62.396164 8.123467 11.425241 -19.387848 6.033638 7.681647 -13.579900 0.000000 0.000000 0.000000 -13.228456 -6.650414 6.453503 -9.734482 0.441876 -0.803741 -9.760368 -0.033305 -0.781269 0.000000 0.000000 0.000000 -14.182924 -1.182613 3.685128 -10.219661 0.471072 -0.379383 -10.273052 -0.018578 -0.303095 0.000000 0.000000 0.000000 -19.965353 7.685216 0.423927 -13.447206 -0.961945 0.675435 -13.559141 0.031830 0.513518 0.000000 0.000000 0.000000 -24.342020 16.643620 -3.521263 -15.678779 -1.752146 2.245991 -15.466751 0.246138 1.955825 0.000000 0.000000 0.000000 0.000000 0.000000 0.000000 0.000000 0.000000 0.000000 -0.911874 -9.137224 14.588198 -0.069370 -0.680411 4.958630 -2.497787 -8.140432 17.809555 -0.832840 0.837968 -19.028250 0.000000 0.000000 0.000000 0.000000 0.000000 0.000000 0.000000 0.000000 0.000000 -1.833880 -6.350834 8.723975 0.058138 0.294331 9.616273 4.161477 -0.885489 17.684309 0.273984 -0.406349 -20.996206 0.000000 0.000000 0.000000 0.000000 0.000000 0.000000 0.000000 0.000000 0.000000 
0.196687 88.954102 2.999420 -0.095303 -0.822649 -10.281731 1.172948 0.101746 6.822235 -0.612197 0.352728 2.942603 0.046650 -0.167200 4.047589 -1.447270 0.435198 4.558080 1.282248 0.131586 3.939589 0.369455 0.414212 -3.621358 -0.188944 -1.080960 -19.333042 0.000000 0.000000 0.000000 91.392181 -0.304820 9.985725 68.918686 -25.456264 0.821360 0.263501 17.582582 34.963341 -5.753515 11.420755 -6.807800 18.276283 30.620792 63.647400 -6.827499 -9.000550 -15.842275 -4.966829 -5.962478 -10.885765 0.000000 0.000000 0.000000 -1.211814 -8.673408 6.451838 3.449878 0.473649 0.942638 3.146142 0.021097 0.956480 0.000000 0.000000 0.000000 -0.522946 -3.272839 3.684042 2.669528 0.504853 0.363069 3.239198 -0.000013 0.323691 0.000000 0.000000 0.000000 1.678078 4.327981 1.325997 3.893314 -0.986533 -0.540852 3.963699 0.002593 -0.363059 0.000000 0.000000 0.000000 2.623825 12.670633 -2.235787 4.797393 -1.943422 -1.372389 4.566081 0.029099 -1.114882 0.000000 0.000000 0.000000 0.000000 0.000000 0.000000 0.000000 0.000000 0.000000 -88.452454 0.069137 4.611605 -71.965286 11.157300 -7.813773 -0.335107 -15.395628 71.627396 3.844144 -21.968443 -5.997433 -20.284548 -30.060104 61.643063 8.851169 13.011519 -21.738432 6.658151 8.722834 -15.221433 0.000000 0.000000 0.000000 -18.967915 -5.650270 4.563405 -13.174687 0.393151 -0.934999 -13.171489 -0.085004 -0.900690 0.000000 0.000000 0.000000 -19.738039 -0.228258 2.454007 -13.643495 0.447789 -0.439352 -13.699369 -0.039544 -0.351387 0.000000 0.000000 0.000000 -25.445524 8.551716 0.047612 -17.011095 -0.921811 0.758044 -17.120855 0.060636 0.578816 0.000000 0.000000 0.000000 -29.303623 17.269541 -2.997504 -19.033316 -1.637390 2.483105 -18.815136 0.337979 2.145964 0.000000 0.000000 0.000000 0.000000 0.000000 0.000000 0.000000 0.000000 0.000000 -0.880691 -9.123944 14.642834 -0.070662 -0.683017 4.935927 -2.490514 -8.181058 17.798178 -0.844147 0.841295 -19.034935 0.000000 0.000000 0.000000 0.000000 0.000000 0.000000 0.000000 0.000000 0.000000 -1.829623 -6.353072 8.747991 0.057525 0.290326 9.635494 4.157749 -0.894336 17.624084 0.275954 -0.403151 -20.966530 0.000000 0.000000 0.000000 0.000000 0.000000 0.000000 0.000000 0.000000 0.000000 
0.183840 88.951523 3.015797 -0.110544 -0.796662 -10.319190 1.171210 0.108162 6.841439 -0.637630 0.359883 2.975255 0.096882 -0.148412 4.042259 -1.451049 0.456192 4.587968 1.336367 0.126294 3.788885 0.359816 0.377563 -3.658915 -0.181860 -1.073493 -19.256266 0.000000 0.000000 0.000000 91.371887 -0.287090 10.028417 68.892204 -25.511278 0.906338 0.265426 17.782829 34.858643 -5.587508 11.987196 -6.800556 18.547379 30.526764 63.374870 -7.135916 -9.528656 -16.662550 -5.206905 -6.302155 -11.464849 0.000000 0.000000 0.000000 0.727497 -9.014020 5.907854 4.199963 0.458480 1.007784 3.894502 0.005457 1.016799 0.000000 0.000000 0.000000 1.320275 -3.596640 3.338063 3.397109 0.499154 0.387445 3.966924 -0.006150 0.345680 0.000000 0.000000 0.000000 3.419594 4.018741 1.249289 4.660811 -0.974566 -0.574423 4.719857 0.012039 -0.388666 0.000000 0.000000 0.000000 4.192980 12.407707 -2.045323 5.516748 -1.914820 -1.468897 5.279376 0.052301 -1.192291 0.000000 0.000000 0.000000 0.000000 0.000000 0.000000 0.000000 0.000000 0.000000 -88.370178 0.098922 4.620391 -71.961121 11.028113 -7.938969 -0.329776 -15.769487 71.781700 3.523577 -21.815620 -5.846295 -21.016220 -29.879395 60.974781 9.455988 14.464239 -23.845148 7.197128 9.673405 -16.694973 0.000000 0.000000 0.000000 -24.068661 -4.789515 3.005093 -16.402271 0.333724 -1.092488 -16.370773 -0.146731 -1.044156 0.000000 0.000000 0.000000 -24.694008 0.595303 1.459204 -16.851870 0.419610 -0.508351 -16.909094 -0.064568 -0.407891 0.000000 0.000000 0.000000 -30.299335 9.289961 -0.223321 -20.323027 -0.874691 0.850053 -20.429316 0.093864 0.651364 0.000000 0.000000 0.000000 -33.668251 17.810024 -2.488324 -22.151260 -1.506189 2.747910 -21.926605 0.442725 2.359876 0.000000 0.000000 0.000000 0.000000 0.000000 0.000000 0.000000 0.000000 0.000000 -0.862120 -9.106441 14.711270 -0.071854 -0.685594 4.907224 -2.482096 -8.222133 17.788105 -0.857352 0.844830 -19.033014 0.000000 0.000000 0.000000 0.000000 0.000000 0.000000 0.000000 0.000000 0.000000 -1.832761 -6.342785 8.788804 0.056847 0.285865 9.659122 4.151963 -0.891901 17.556522 0.276467 -0.401659 -20.932835 0.000000 0.000000 0.000000 0.000000 0.000000 0.000000 0.000000 0.000000 0.000000 
0.169294 88.948509 3.033075 -0.121909 -0.777354 -10.351572 1.164198 0.114811 6.861753 -0.666751 0.367975 3.010948 0.146461 -0.134707 4.032580 -1.454516 0.477791 4.606186 1.351528 0.134512 3.665323 0.350361 0.346467 -3.682659 -0.181212 -1.069420 -19.173532 0.000000 0.000000 0.000000 91.362946 -0.270057 10.068252 68.859200 -25.578207 1.048693 0.267494 17.946564 34.620274 -5.430699 12.497089 -6.782444 18.791939 30.444614 63.134644 -7.403956 -10.005798 -17.390083 -5.418938 -6.609287 -11.982328 0.000000 0.000000 0.000000 2.488273 -9.324835 5.398537 4.945478 0.438765 1.082896 4.638899 -0.014224 1.087263 0.000000 0.000000 0.000000 2.989172 -3.892423 3.017515 4.114937 0.491616 0.415332 4.683306 -0.013712 0.370920 0.000000 0.000000 0.000000 5.010909 3.734404 1.185106 5.411732 -0.960259 -0.613686 5.460474 0.022958 -0.418909 0.000000 0.000000 0.000000 5.646729 12.165218 -1.843479 6.223866 -1.879539 -1.583013 5.979656 0.080892 -1.284294 0.000000 0.000000 0.000000 0.000000 0.000000 0.000000 0.000000 0.000000 0.000000 -88.291328 0.125087 4.629434 -71.988411 10.930660 -8.054535 -0.324741 -16.064913 71.794434 3.454891 -21.310261 -5.761180 -21.631357 -29.741604 60.430328 9.913348 15.690231 -25.587650 7.623593 10.474378 -17.917320 0.000000 0.000000 0.000000 -28.261921 -4.116914 1.816827 -19.171974 0.270199 -1.255983 -19.117033 -0.211925 -1.193414 0.000000 0.000000 0.000000 -28.780134 1.246879 0.724673 -19.600613 0.389615 -0.578343 -19.659384 -0.091022 -0.465774 0.000000 0.000000 0.000000 -34.270695 9.876401 -0.384061 -23.138474 -0.825814 0.941020 -23.241421 0.128080 0.723030 0.000000 0.000000 0.000000 -37.218304 18.257017 -2.016366 -24.796392 -1.372551 3.008145 -24.566492 0.549883 2.570992 0.000000 0.000000 0.000000 0.000000 0.000000 0.000000 0.000000 0.000000 0.000000 -0.850898 -9.083756 14.777081 -0.072807 -0.687711 4.878479 -2.476350 -8.259970 17.782122 -0.870198 0.847503 -19.026760 0.000000 0.000000 0.000000 0.000000 0.000000 0.000000 0.000000 0.000000 0.000000 -1.839326 -6.322709 8.831409 0.055993 0.281272 9.688377 4.145415 -0.877055 17.490444 0.275763 -0.399871 -20.901192 0.000000 0.000000 0.000000 0.000000 0.000000 0.000000 0.000000 0.000000 0.000000 
